<?xml version="1.0" encoding="iso-8859-1"?>
<!-- Generator: Adobe Illustrator 15.1.0, SVG Export Plug-In . SVG Version: 6.00 Build 0)  -->
<!DOCTYPE svg PUBLIC "-//W3C//DTD SVG 1.1//EN" "http://www.w3.org/Graphics/SVG/1.1/DTD/svg11.dtd">
<svg version="1.1" id="Layer_1" xmlns="http://www.w3.org/2000/svg" xmlns:xlink="http://www.w3.org/1999/xlink" x="0px" y="0px"
	 width="696px" height="167px" viewBox="0 0 696 167" style="enable-background:new 0 0 696 167;" xml:space="preserve">
<style type="text/css">
<![CDATA[
	.st0{fill:#E8A816;}
	.st1{fill:#FFFFFF;}
]]>
</style>
<g>
	<path class="st1" d="M235.6,119.9c-0.5,1-1.2,2.2-2.1,3.4c-0.9,1.2-2,2.3-3.3,3.4c-1.3,1-2.9,1.9-4.7,2.5s-3.9,1-6.3,1
		c-2.5,0-4.9-0.4-7.3-1.3s-4.5-2.2-6.3-4.1c-1.9-1.9-3.3-4.4-4.5-7.4s-1.7-6.6-1.7-10.9c0-4.2,0.6-7.8,1.9-10.8
		c1.2-3.1,2.8-5.6,4.8-7.6c2-2,4.2-3.6,6.7-4.6s5-1.5,7.5-1.5c7.2,0,12.2,3.2,15,9.7h0.2v-9.5c0-2.5,0-4.9,0-7.4s-0.1-4.9-0.1-7.2
		c0-2.3-0.1-4.4-0.1-6.4s-0.1-3.8-0.1-5.4c0.8,0.1,1.5,0.3,2.2,0.4s1.4,0.1,2.1,0.1s1.4,0,2.1-0.1s1.4-0.2,2.3-0.4
		c-0.2,2.1-0.3,5.1-0.5,9c-0.1,3.9-0.2,8.3-0.3,13c-0.1,4.7-0.2,9.6-0.2,14.6c-0.1,5-0.1,9.6-0.1,13.7c0,4.5,0,8.5,0.1,12.1
		s0.1,7.2,0.2,11c-1.3-0.1-2.6-0.2-3.8-0.2c-1.2,0-2.4,0.1-3.7,0.2l0.3-9.2H235.6z M209.1,116.7c0.8,2.5,1.8,4.6,3.1,6.1
		c1.3,1.5,2.7,2.6,4.3,3.2c1.6,0.6,3.2,0.9,4.8,0.9c2.5,0,4.7-0.6,6.5-1.9c1.8-1.3,3.3-2.9,4.5-5c1.2-2,2.1-4.4,2.6-7
		c0.6-2.6,0.8-5.2,0.8-7.8c0-6.2-1.2-11-3.6-14.3s-5.9-4.9-10.6-4.9c-2.3,0-4.4,0.5-6.1,1.6s-3.1,2.6-4.3,4.5
		c-1.1,1.9-2,4.2-2.5,6.7c-0.6,2.6-0.8,5.3-0.8,8.2C207.9,110.9,208.3,114.1,209.1,116.7z"/>
	<path class="st1" d="M259.4,62.5c1-1,2.1-1.5,3.5-1.5c1.4,0,2.5,0.5,3.5,1.5s1.5,2.1,1.5,3.5c0,1.4-0.5,2.5-1.5,3.5
		s-2.1,1.5-3.5,1.5c-1.4,0-2.5-0.5-3.5-1.5S258,67.3,258,66C258,64.6,258.4,63.4,259.4,62.5z M259.2,91.9c-0.1-3.2-0.3-6.2-0.7-9
		c1.8,0.3,3.3,0.5,4.4,0.5c1.1,0,2.6-0.2,4.4-0.5c-0.3,2.8-0.6,5.8-0.7,9c-0.1,3.2-0.2,6.3-0.2,9.2v10.1c0,2.9,0.1,6,0.2,9.2
		c0.1,3.2,0.3,6.1,0.7,8.7c-1.5-0.1-3-0.2-4.4-0.2c-1.4,0-2.9,0.1-4.4,0.2c0.3-2.6,0.6-5.5,0.7-8.7c0.1-3.2,0.2-6.3,0.2-9.2v-10.1
		C259.3,98.2,259.3,95.1,259.2,91.9z"/>
	<path class="st1" d="M282.8,90.7c1-2,2.3-3.6,4-4.9c1.7-1.3,3.7-2.3,5.9-2.9c2.2-0.6,4.6-1,7.2-1c1.2,0,2.4,0,3.6,0.1
		c1.1,0.1,2.6,0.2,4.3,0.3c1.5,0.1,2.8,0.2,4,0.3s2.1,0.1,2.8,0.1c3.6,0,6.3-0.1,7.9-0.4c-0.1,0.3-0.1,0.7-0.1,1s0,0.7,0,1
		s0,0.7,0,1s0.1,0.7,0.1,1c-1.9-0.1-3.7-0.3-5.5-0.4c-1.8-0.2-3.5-0.3-5.3-0.3l-0.2,0.2c2,1.1,3.6,2.8,4.8,5.1s1.8,4.7,1.8,7.2
		c0,4.9-1.6,8.7-4.9,11.4c-3.3,2.8-7.7,4.1-13.2,4.1c-0.9,0-1.8,0-2.7-0.1s-1.8-0.1-2.7-0.1c-1.2,0-2.3,0.4-3.3,1.3
		c-1,0.8-1.5,1.9-1.5,3.2c0,1.7,0.4,2.9,1.2,3.7s2.3,1.2,4.5,1.3c1.8,0.1,3.6,0.1,5.3,0.2c1.8,0,3.5,0.1,5.3,0.2
		c3,0.1,5.5,0.4,7.6,1.1c2.1,0.6,3.8,1.5,5.2,2.6s2.3,2.4,2.9,3.8c0.6,1.4,0.9,3,0.9,4.7c0,2.3-0.4,4.6-1.3,6.9
		c-0.9,2.3-2.2,4.4-4.1,6.3c-1.9,1.9-4.2,3.4-7.2,4.7c-2.9,1.2-6.4,1.8-10.5,1.8c-6.3,0-11.3-1.2-14.9-3.7
		c-3.6-2.5-5.5-5.9-5.5-10.3c0-1.7,0.3-3.2,0.9-4.7c0.6-1.4,1.4-2.7,2.4-3.8c1-1.1,2.1-2,3.3-2.6c1.2-0.6,2.5-1.1,3.8-1.5v-0.2
		c-2-0.6-3.5-1.6-4.6-2.9c-1-1.4-1.6-3-1.6-4.9c0-1.1,0.2-2.1,0.6-3c0.4-0.9,1-1.7,1.6-2.4s1.4-1.3,2.2-1.7s1.6-0.7,2.4-0.9v-0.2
		c-3-1.3-5.3-3.1-7-5.5s-2.5-5.3-2.5-8.9C281.3,95.1,281.8,92.7,282.8,90.7z M312.5,131.3c-2.3-1.6-6-2.3-11.3-2.3
		c-4.9,0-8.6,0.8-11.3,2.4c-2.7,1.6-4,4.5-4,8.6c0,2.2,0.4,4.1,1.1,5.6c0.7,1.6,1.8,2.8,3,3.8c1.3,1,2.8,1.7,4.5,2.1
		c1.8,0.5,3.6,0.7,5.6,0.7c1.9,0,3.9-0.3,5.7-0.8c1.9-0.5,3.6-1.3,5-2.3c1.5-1,2.6-2.4,3.6-3.9c0.9-1.6,1.4-3.5,1.4-5.7
		C315.9,135.5,314.7,132.8,312.5,131.3z M307.7,88c-2-2.1-4.5-3.2-7.7-3.2c-3.5,0-6.2,1.2-8.2,3.6c-2,2.4-2.9,5.5-2.9,9.5
		c0,4.1,0.9,7.3,2.7,9.7s4.6,3.6,8.3,3.6c1.9,0,3.5-0.4,4.8-1.1s2.4-1.8,3.3-3c0.9-1.3,1.5-2.7,2-4.4c0.4-1.7,0.6-3.4,0.6-5.2
		C310.6,93.2,309.7,90.1,307.7,88z"/>
	<path class="st1" d="M335.1,62.5c1-1,2.1-1.5,3.5-1.5c1.4,0,2.5,0.5,3.5,1.5s1.5,2.1,1.5,3.5c0,1.4-0.5,2.5-1.5,3.5
		s-2.1,1.5-3.5,1.5c-1.4,0-2.5-0.5-3.5-1.5s-1.5-2.1-1.5-3.5C333.7,64.6,334.2,63.4,335.1,62.5z M334.9,91.9c-0.1-3.2-0.3-6.2-0.7-9
		c1.8,0.3,3.3,0.5,4.4,0.5c1.1,0,2.6-0.2,4.4-0.5c-0.3,2.8-0.6,5.8-0.7,9c-0.1,3.2-0.2,6.3-0.2,9.2v10.1c0,2.9,0.1,6,0.2,9.2
		c0.1,3.2,0.3,6.1,0.7,8.7c-1.5-0.1-3-0.2-4.4-0.2c-1.4,0-2.9,0.1-4.4,0.2c0.3-2.6,0.6-5.5,0.7-8.7c0.1-3.2,0.2-6.3,0.2-9.2v-10.1
		C335,98.2,335,95.1,334.9,91.9z"/>
	<path class="st1" d="M368.4,69.9c-0.2,2.5-0.3,4.9-0.4,7.3c-0.1,2.4-0.2,4.8-0.3,7.2c0.7,0,2,0,4-0.1c1.9,0,4.1-0.1,6.3-0.3
		c-0.1,0.2-0.1,0.5-0.1,1.1v1v1.1c0,0.5,0,0.8,0.1,1c-0.8-0.1-1.7-0.1-2.6-0.1s-1.9,0-2.9,0h-4.8c-0.1,0.3-0.1,1.3-0.2,3.1
		c-0.1,1.8-0.2,4-0.2,6.5c-0.1,2.5-0.1,5.1-0.1,7.8s0,5.2,0,7.3c0,1.8,0,3.6,0.1,5.4s0.4,3.3,0.9,4.7s1.3,2.5,2.3,3.4
		c1,0.8,2.5,1.3,4.5,1.3c0.5,0,1.2-0.1,2.1-0.2c0.9-0.1,1.6-0.3,2.3-0.5v2.3c-1.1,0.2-2.3,0.4-3.7,0.7c-1.3,0.3-2.6,0.4-3.8,0.4
		c-4.1,0-7.1-1-9-3c-1.9-2-2.9-5-2.9-8.9c0-1.8,0-3.6,0.1-5.7c0.1-2,0.1-4.3,0.2-6.7s0.2-5.1,0.2-8.1c0.1-3,0.1-6.2,0.1-9.9h-3.1
		c-0.5,0-1.1,0-1.7,0s-1.2,0.1-1.8,0.1c0.1-0.4,0.1-0.8,0.1-1.1s0-0.7,0-1.1c0-0.3,0-0.6,0-1s-0.1-0.6-0.1-1
		c2.9,0.2,5.1,0.3,6.4,0.3c-0.1-1.3-0.1-2.9-0.1-4.9s-0.1-4-0.2-6l8-3.4H368.4z"/>
	<path class="st1" d="M395.7,83.1c2.5-0.8,5-1.2,7.6-1.2c2.3,0,4.5,0.3,6.4,1s3.6,1.7,5,2.9c1.4,1.3,2.4,2.8,3.2,4.6
		s1.2,3.7,1.2,5.9c0,3.7-0.1,7.4-0.2,11c-0.1,3.7-0.2,7.5-0.2,11.6c0,0.8,0,1.6,0,2.5c0,0.9,0.2,1.7,0.4,2.3
		c0.3,0.7,0.6,1.2,1.1,1.7c0.5,0.5,1.2,0.7,2.2,0.7c0.3,0,0.7,0,1,0c0.4,0,0.7-0.1,1-0.3v2.2c-0.7,0.3-1.6,0.6-2.7,0.8
		c-1.1,0.2-2.2,0.3-3.5,0.3c-2.1,0-3.7-0.5-4.8-1.6s-1.8-2.5-2-4.1c-2.3,2.3-4.6,4.1-6.9,5.2c-2.3,1.1-5.1,1.7-8.4,1.7
		c-1.6,0-3.2-0.2-4.8-0.7c-1.6-0.5-2.9-1.2-4.1-2.2s-2.2-2.3-2.9-3.8c-0.7-1.5-1.1-3.1-1.1-5c0-3.9,1.2-6.9,3.7-9.1
		s5.8-3.6,10.1-4.3c3.5-0.6,6.3-1.1,8.2-1.5s3.4-0.9,4.4-1.3c0.9-0.5,1.5-1,1.7-1.6s0.3-1.4,0.3-2.4c0-1.6-0.2-3.2-0.6-4.7
		c-0.4-1.5-1-2.8-1.8-3.9s-1.9-2-3.3-2.7c-1.4-0.7-3-1-5-1c-2.6,0-5,0.6-7.3,1.8s-3.9,2.8-5,4.9h-1.1v-5.1
		C390.5,85.4,393.2,83.9,395.7,83.1z M407.8,105.9c-1.5,0.3-2.9,0.5-4.4,0.8c-1.5,0.3-3,0.7-4.4,1.1s-2.8,1.1-3.9,1.8
		c-1.1,0.8-2,1.8-2.7,2.9c-0.7,1.2-1,2.7-1,4.5c0,3,0.9,5.4,2.6,6.9s3.7,2.3,5.8,2.3c2.5,0,4.7-0.7,6.8-2c2-1.4,3.6-3,4.7-4.8
		l0.4-14.6C410.5,105.3,409.3,105.6,407.8,105.9z"/>
	<path class="st1" d="M437.7,76.6c0-2.6-0.1-5.2-0.1-7.7s-0.1-4.9-0.2-7.2s-0.2-4.3-0.3-5.9c1.8,0.3,3.3,0.5,4.4,0.5
		s2.6-0.2,4.4-0.5c-0.1,1.6-0.3,3.6-0.4,5.9s-0.2,4.7-0.3,7.2c-0.1,2.5-0.1,5.1-0.2,7.7c0,2.6-0.1,5-0.1,7.2v17.6
		c0,2.2,0,4.6,0.1,7.2c0,2.6,0.1,5.2,0.2,7.7c0.1,2.5,0.2,4.9,0.3,7.2s0.2,4.2,0.4,5.6c-1.5-0.1-2.9-0.2-4.4-0.2s-2.9,0.1-4.4,0.2
		c0.1-1.5,0.2-3.4,0.3-5.6s0.2-4.7,0.2-7.2s0.1-5.1,0.1-7.7c0-2.6,0-5,0-7.2V83.8C437.7,81.6,437.7,79.2,437.7,76.6z"/>
	<path class="st1" d="M491.8,76.6c0-2.6-0.1-5.2-0.1-7.7s-0.1-4.9-0.2-7.2s-0.2-4.3-0.3-5.9c1.8,0.3,3.3,0.5,4.4,0.5
		s2.6-0.2,4.4-0.5c-0.1,1.6-0.3,3.6-0.4,5.9s-0.2,4.7-0.3,7.2c-0.1,2.5-0.1,5.1-0.2,7.7c0,2.6-0.1,5-0.1,7.2v17.6
		c0,2.2,0,4.6,0.1,7.2c0,2.6,0.1,5.2,0.2,7.7c0.1,2.5,0.2,4.9,0.3,7.2s0.2,4.2,0.4,5.6c-1.5-0.1-2.9-0.2-4.4-0.2s-2.9,0.1-4.4,0.2
		c0.1-1.5,0.2-3.4,0.3-5.6s0.2-4.7,0.2-7.2s0.1-5.1,0.1-7.7c0-2.6,0-5,0-7.2V83.8C491.9,81.6,491.8,79.2,491.8,76.6z"/>
	<path class="st1" d="M514.6,94.9c1.4-3.1,3.2-5.6,5.5-7.5c2.3-1.9,4.8-3.3,7.6-4.2s5.6-1.3,8.4-1.3c2.9,0,5.7,0.4,8.5,1.3
		s5.3,2.3,7.6,4.2c2.3,1.9,4.1,4.4,5.5,7.5c1.4,3.1,2.1,6.8,2.1,11.2s-0.7,8.2-2.1,11.2c-1.4,3.1-3.2,5.6-5.5,7.5
		c-2.3,1.9-4.8,3.3-7.6,4s-5.6,1.2-8.5,1.2c-2.8,0-5.6-0.4-8.4-1.2s-5.4-2.1-7.6-4c-2.3-1.9-4.1-4.4-5.5-7.5
		c-1.4-3.1-2.1-6.8-2.1-11.2S513.2,98,514.6,94.9z M521.8,114.1c0.5,2.5,1.3,4.8,2.5,6.8s2.7,3.6,4.7,4.7s4.3,1.8,7.2,1.8
		c2.8,0,5.2-0.6,7.2-1.8s3.5-2.7,4.7-4.7s2-4.2,2.5-6.8s0.7-5.2,0.7-7.9c0-2.7-0.2-5.4-0.7-7.9s-1.3-4.8-2.5-6.8s-2.7-3.6-4.7-4.7
		s-4.3-1.8-7.2-1.8c-2.9,0-5.2,0.6-7.2,1.8s-3.5,2.7-4.7,4.7s-2,4.2-2.5,6.8s-0.7,5.2-0.7,7.9C521,108.9,521.3,111.5,521.8,114.1z"
		/>
	<path class="st1" d="M568.7,94.9c1.4-3.1,3.2-5.6,5.5-7.5c2.3-1.9,4.8-3.3,7.6-4.2s5.6-1.3,8.4-1.3c2.9,0,5.7,0.4,8.5,1.3
		s5.3,2.3,7.6,4.2c2.3,1.9,4.1,4.4,5.5,7.5c1.4,3.1,2.1,6.8,2.1,11.2s-0.7,8.2-2.1,11.2c-1.4,3.1-3.2,5.6-5.5,7.5
		c-2.3,1.9-4.8,3.3-7.6,4s-5.6,1.2-8.5,1.2c-2.8,0-5.6-0.4-8.4-1.2s-5.4-2.1-7.6-4c-2.3-1.9-4.1-4.4-5.5-7.5
		c-1.4-3.1-2.1-6.8-2.1-11.2S567.3,98,568.7,94.9z M575.9,114.1c0.5,2.5,1.3,4.8,2.5,6.8s2.7,3.6,4.7,4.7s4.3,1.8,7.2,1.8
		c2.8,0,5.2-0.6,7.2-1.8s3.5-2.7,4.7-4.7s2-4.2,2.5-6.8s0.7-5.2,0.7-7.9c0-2.7-0.2-5.4-0.7-7.9s-1.3-4.8-2.5-6.8s-2.7-3.6-4.7-4.7
		s-4.3-1.8-7.2-1.8c-2.9,0-5.2,0.6-7.2,1.8s-3.5,2.7-4.7,4.7s-2,4.2-2.5,6.8s-0.7,5.2-0.7,7.9C575.1,108.9,575.4,111.5,575.9,114.1z
		"/>
	<path class="st1" d="M624.7,91.9c-0.1-3.2-0.3-6.2-0.6-9c1.8,0.3,3.3,0.5,4.4,0.5c0.5,0,1.1,0,1.7-0.1s1.3-0.2,2.2-0.3
		c-0.2,2.6-0.3,5.2-0.3,7.8h0.2c3.4-5.8,8.3-8.8,14.5-8.8c1.6,0,3.2,0.2,4.8,0.7s3,1.2,4.2,2c1.3,0.8,2.3,1.9,3.3,3.1
		c0.9,1.2,1.5,2.5,1.8,3.8h0.2c1.6-3.1,3.7-5.5,6.4-7.2s5.8-2.5,9.3-2.5c2.1,0,4.1,0.3,5.9,0.9c1.8,0.6,3.4,1.5,4.7,2.7
		s2.4,2.8,3.1,4.8c0.7,1.9,1.1,4.3,1.1,7c0,1.1,0,2.3-0.1,3.6s-0.1,2.8-0.2,4.5s-0.1,3.7-0.2,5.8s-0.1,4.7-0.1,7.5
		c0,1.8,0,3.4,0.1,5.1c0,1.6,0.1,3.4,0.3,5.3c-0.7-0.1-1.4-0.2-2.1-0.2s-1.4,0-2.1,0c-0.7,0-1.4,0-2.2,0s-1.4,0.1-2.1,0.2
		c0.2-1.6,0.4-4.9,0.6-9.8c0.2-4.9,0.3-11.8,0.3-20.6c0-1.6-0.2-3.1-0.5-4.6s-0.9-2.7-1.7-3.7c-0.8-1-1.8-1.9-3.1-2.5
		s-2.9-0.9-4.9-0.9c-2.3,0-4.3,0.5-5.9,1.4s-2.9,2-3.8,3.2c-0.5,0.7-0.9,1.4-1.2,2.1c-0.3,0.7-0.5,1.8-0.7,3.3s-0.3,3.5-0.3,6.1
		c-0.1,2.6-0.1,6.2-0.1,10.8c0,2.8,0,5.3,0.1,7.6s0.2,4.8,0.4,7.5c-1.5-0.1-2.9-0.2-4.3-0.2c-1.4,0-2.8,0.1-4.3,0.2
		c0.3-3.6,0.6-7.2,0.7-10.9c0.1-3.7,0.2-7.3,0.2-10.9c0-3,0-5.4,0-7.2s-0.1-3.1-0.2-4.1c-0.1-1-0.3-1.8-0.5-2.5s-0.5-1.4-0.9-2.1
		c-0.7-1.2-1.8-2.3-3.4-3.2c-1.5-0.9-3.1-1.3-4.7-1.3c-4.3,0-7.4,1.4-9.4,4.2s-3,6.7-3,11.8v8.3c0,2.9,0,6,0.1,9.2
		c0.1,3.2,0.3,6.1,0.6,8.7c-1.5-0.1-2.9-0.2-4.4-0.2c-1.4,0-2.9,0.1-4.4,0.2c0.3-2.6,0.5-5.5,0.6-8.7s0.1-6.3,0.1-9.2v-10.1
		C624.9,98.2,624.8,95.1,624.7,91.9z"/>
</g>
<polygon class="st1" points="109.6,19.6 102.2,37.5 152.7,52 161.1,31.4 "/>
<polygon class="st1" points="61.8,136.6 107.6,162.4 149,61 98.5,46.6 "/>
<polygon class="st1" points="3.7,104 53.2,131.8 68.4,94.7 16.6,72.4 "/>
<polygon class="st0" points="20.2,63.7 71.9,86.1 99.9,17.7 44.2,5 "/>
</svg>
